<?xml version="1.0" encoding="utf-8"?>
<!-- Generator: Adobe Illustrator 23.0.1, SVG Export Plug-In . SVG Version: 6.00 Build 0)  -->
<svg version="1.1" id="Layer_1" xmlns="http://www.w3.org/2000/svg" xmlns:xlink="http://www.w3.org/1999/xlink" x="0px" y="0px"
	 viewBox="0 0 64 64" style="enable-background:new 0 0 64 64;" xml:space="preserve">
<style type="text/css">
	.st0{fill:#231F20;}
</style>
<g id="XMLID_368_">
	<path id="XMLID_373_" class="st0" d="M20,0L20,0C11.16,0,4,7.16,4,16v48h32V16C36,7.16,28.84,0,20,0z M8,26h24v28H8V26z M8,60v-2
		h24v2H8z M32,22H8v-6C8,9.38,13.38,4,20,4s12,5.38,12,12V22z"/>
	<path id="XMLID_370_" class="st0" d="M44,48v8c0,4.42,3.58,8,8,8h0c4.42,0,8-3.58,8-8v-8H44z M56,56c0,2.21-1.79,4-4,4
		c-2.21,0-4-1.79-4-4v-4h8V56z"/>
	<path id="XMLID_369_" class="st0" d="M52.55,34.51c0.96,0.48,1.6,1.35,1.77,2.41s-0.16,2.09-0.92,2.85l-2.82,2.82l2.83,2.83
		l2.82-2.82c1.68-1.67,2.42-3.98,2.04-6.31c-0.38-2.34-1.81-4.29-3.93-5.35c-1.14-0.57-1.81-1.67-1.81-2.94
		c0-1.27,0.68-2.37,1.81-2.93l-1.79-3.58c-2.48,1.24-4.02,3.74-4.02,6.51C48.53,30.78,50.07,33.27,52.55,34.51z"/>
</g>
</svg>
