<?xml version="1.0" encoding="utf-8"?>
<!-- Generator: Adobe Illustrator 23.0.1, SVG Export Plug-In . SVG Version: 6.00 Build 0)  -->
<svg version="1.1" id="Layer_1" xmlns="http://www.w3.org/2000/svg" xmlns:xlink="http://www.w3.org/1999/xlink" x="0px" y="0px"
	 viewBox="0 0 64 64" style="enable-background:new 0 0 64 64;" xml:space="preserve">
<style type="text/css">
	.st0{fill:#231F20;}
</style>
<g id="XMLID_1_">
	<path id="XMLID_5_" class="st0" d="M46,8c-5.51,0-10,4.49-10,10s4.49,10,10,10s10-4.49,10-10S51.51,8,46,8z M46,24
		c-3.31,0-6-2.69-6-6s2.69-6,6-6s6,2.69,6,6S49.31,24,46,24z"/>
	<path id="XMLID_15_" class="st0" d="M48,0.12V0H18C8.08,0,0,8.07,0,18c0,8.87,6.45,16.24,14.91,17.71l-2.78,5.56
		c-2.73,5.46-2.73,11.99,0,17.46L14.76,64h0.4h4.07h23.53h1.57h2.9l-3.53-7.06c-2.17-4.34-2.17-9.53,0-13.88L47.24,36H48v-0.12
		c8.99-1,16-8.63,16-17.88S56.99,1.12,48,0.12z M4,18c0-7.72,6.28-14,14-14h16.71C30.62,7.3,28,12.35,28,18s2.62,10.7,6.71,14H18
		C10.28,32,4,25.72,4,18z M40.13,41.27c-2.73,5.46-2.73,11.99,0,17.46L40.76,60H17.24l-1.53-3.06c-2.17-4.34-2.17-9.53,0-13.88
		L19.24,36h23.53L40.13,41.27z M46,32c-7.72,0-14-6.28-14-14S38.28,4,46,4s14,6.28,14,14S53.72,32,46,32z"/>
</g>
</svg>
