<?xml version="1.0" encoding="utf-8"?>
<!-- Generator: Adobe Illustrator 23.0.1, SVG Export Plug-In . SVG Version: 6.00 Build 0)  -->
<svg version="1.1" id="Layer_1" xmlns="http://www.w3.org/2000/svg" xmlns:xlink="http://www.w3.org/1999/xlink" x="0px" y="0px"
	 viewBox="0 0 64 64" style="enable-background:new 0 0 64 64;" xml:space="preserve">
<style type="text/css">
	.st0{fill:#231F20;}
</style>
<g id="XMLID_281_">
	<path id="XMLID_285_" class="st0" d="M27,16c0,2.61-1.67,4.82-4,5.65V0h-4v21.65c-2.33-0.83-4-3.04-4-5.65V0h-4v16
		c0,4.83,3.44,8.87,8,9.8V64h4V25.8c4.56-0.93,8-4.97,8-9.8V0h-4V16z"/>
	<path id="XMLID_282_" class="st0" d="M37,16v9.37c0,4.24,1.69,8.31,4.69,11.31L45,40v24h8V0C44.16,0,37,7.16,37,16z M49,38.34
		l-1.17-1.17l-3.31-3.31C42.25,31.59,41,28.58,41,25.37V16c0-5.21,3.34-9.66,8-11.31V38.34z"/>
</g>
</svg>
