<?xml version="1.0" encoding="utf-8"?>
<!-- Generator: Adobe Illustrator 23.0.1, SVG Export Plug-In . SVG Version: 6.00 Build 0)  -->
<svg version="1.1" id="Layer_1" xmlns="http://www.w3.org/2000/svg" xmlns:xlink="http://www.w3.org/1999/xlink" x="0px" y="0px"
	 viewBox="0 0 64 64" style="enable-background:new 0 0 64 64;" xml:space="preserve">
<style type="text/css">
	.st0{fill:#231F20;}
</style>
<path id="XMLID_238_" class="st0" d="M64,0h-8H40h-6h-4h-6H8H0v40h8v16c0,4.42,3.58,8,8,8c4.42,0,8-3.58,8-8V40h16v16
	c0,4.42,3.58,8,8,8c4.42,0,8-3.58,8-8V40h8V0z M52,4v32h-8V4H52z M20,4v32h-8V4H20z M4,36V4h4v32H4z M20,56c0,2.21-1.79,4-4,4
	s-4-1.79-4-4V40h8V56z M24,4h6v32h-6V4z M34,36V4h6v32H34z M52,56c0,2.21-1.79,4-4,4s-4-1.79-4-4V40h8V56z M60,36h-4V4h4V36z"/>
</svg>
