<?xml version="1.0" encoding="utf-8"?>
<!-- Generator: Adobe Illustrator 23.0.1, SVG Export Plug-In . SVG Version: 6.00 Build 0)  -->
<svg version="1.1" id="Layer_1" xmlns="http://www.w3.org/2000/svg" xmlns:xlink="http://www.w3.org/1999/xlink" x="0px" y="0px"
	 viewBox="0 0 64 64" style="enable-background:new 0 0 64 64;" xml:space="preserve">
<style type="text/css">
	.st0{fill:#231F20;}
</style>
<g id="XMLID_555_">
	<path id="XMLID_1865_" class="st0" d="M52,0v12H40V0H28v20H14C6.28,20,0,26.28,0,34s6.28,14,14,14h14v4v10v2h36v-2V52V0H52z M14,24
		h1.84c-0.87,6.06-5.63,10.87-11.67,11.81C4.06,35.22,4,34.62,4,34C4,28.49,8.49,24,14,24z M32,56h28v4H32V56z M32,52v-4h8V36.63h-4
		V44h-4h-2H14c-3.44,0-6.47-1.74-8.27-4.39c7.51-1.59,13.3-7.86,14.16-15.61H32V4h4v12h20V4h4v48H32z"/>
	<rect id="XMLID_1916_" x="34" y="22" class="st0" width="8" height="8"/>
	<rect id="XMLID_1950_" x="46" y="22" class="st0" width="8" height="8"/>
</g>
</svg>
